# xmcd CD database file
# Copyright (C) 1993-1998 Ti Kan
# 
# Track frame offsets:
#     183
#     16595
#     28273
#     42985
#     56868
#     72475
#     83815
#     99440
#     114738
#     129248
#     143793
# 
# Disc length: 2146 seconds
# 
# Revision: 1
# Processed by: cddbd v1.4b41PL1 Copyright (c) Steve Scherf et al.
# Submitted via: DiscPlay 4.0.4
# 
DISCID=9408600b
DTITLE=Billy "Crash" Craddock - Back On Track
DYEAR=1900
DGENRE=
TTITLE0=A Big River To Cross
TTITLE1=Love Night
TTITLE2=To Love Somebody
TTITLE3=Life's Too Short (To Hurt This Long)
TTITLE4=Some Such Foolishness
TTITLE5=You Got The Job
TTITLE6=Just Another Miserable Day (Here In Paradise)
TTITLE7=I Can't Help It (If I'm Still In Love With You)
TTITLE8=The Girls That Everybody Knew
TTITLE9=What Good Is Falling Asleep
TTITLE10=Softly Diana
EXTD=
EXTT0=
EXTT1=
EXTT2=
EXTT3=
EXTT4=
EXTT5=
EXTT6=
EXTT7=
EXTT8=
EXTT9=
EXTT10=
PLAYORDER=
